<svg id="Layer_1" data-name="Layer 1" xmlns="http://www.w3.org/2000/svg" viewBox="0 0 311.2 83.9" preserveAspectRatio="xMinYMid">
  <title>D-dur</title>
  <path id="D-dur" d="M308.1,73c-9.3,0-10.4,6.9-10.4,12.3v22.4H284.5V62.2h12.7v7.5c2.5-6.3,6.2-8.3,11.8-8.3l2.3,0.2V73.3Zm-44.9,29.7c-2.5,4.1-8.3,6.2-12.9,6.2-14.2,0-15.2-11.5-15.2-20.1V62.2H248V88.3c0,5,1,9.8,7.1,9.8s7.8-5.4,7.8-12.2V62.2h12.6v45.5H263.2v-5h0Zm-49.5.6c-2.6,4.1-7.4,5.5-12,5.5-12.9,0-19.4-11.9-19.4-23.5s6.2-24.3,20-24.3a16.6,16.6,0,0,1,10.9,4.1V45.7h13.1v62H213.8v-4.4h0Zm-9.1-31.6c-6.9,0-9.1,7.4-9.1,13.1s1.8,13.4,9.3,13.4,8.9-6.9,8.9-12.9S212.2,71.7,204.6,71.7Zm-52.9,5.4h25.5v9.9H151.7V77.2h0Zm-38,30.6H93.8v-62h20.5c7.4,0,14.7.6,20.8,5.2,8.2,6.1,11.2,16.2,11.2,25.9,0,11.8-5.1,23.9-16.5,28.6-5.1,2.1-10.6,2.3-16.1,2.3h0Zm10.5-48.5c-3.6-1.9-8.8-1.9-12.8-1.9h-3.8V96.2h4.1c9.7,0,19.7-.4,19.7-20,0-5.9-1.4-13.9-7.2-17h0ZM0,93.2H58.1L67,107.8H0V93.2Zm0-31V47.8H60.7c0,0.6,0,1.1,0,1.7,0,5.4-1.3,9.5-3.8,12.7H0ZM0,25H29.2c14.2,0,25.4,4.6,29.7,14.5H0V25H0ZM53,84.9H0V70.5H44.1Z" transform="translate(0 -25)" fill="#ab035c"/>
</svg>