<svg id="Layer_1" data-name="Layer 1" xmlns="http://www.w3.org/2000/svg" viewBox="0 0 654.4 97" preserveAspectRatio="xMinYMid">
  <title>CRozhlas</title>
  <path id="český_rozhlas" data-name="český rozhlas" d="M29.2,0H0V14.6H59C54.8,4.6,43.5,0,29.2,0M57,37.4H0V22.9H60.8c0,0.6,0,1.1,0,1.7,0,5.4-1.3,9.6-3.9,12.8M0,45.7V60.1H53.1L44.2,45.7H0ZM0,68.4H58.3l9,14.6H0V68.4H0ZM127.4,15.3H112.2L104.1,5H116l3.9,6,3.8-6h12.1l-8.4,10.3m303,44.1c0,6.8-2.3,14.3-10.3,14.3s-10.3-7.2-10.3-13.8,2.6-13.5,10.5-13.5,10.1,6.5,10.1,13.1M443.7,60c0-13.7-8.8-24-22.8-24s-24.4,9.6-24.4,24.4,8.9,23.9,23.2,23.9S443.7,74.1,443.7,60M394.4,48.4V36.6l-2.3-.2c-6.2,0-9.6,2.6-11.8,8.4V37.3H367.6V83h13.3V68.1c0-2.3,0-4.7.1-7,0.2-7.4,1.2-13,10.3-13l3.1,0.3M295.3,83L276.4,54.6,294,37.3H277.2L263.1,52.9V20.7h-13V83h13V67.8l4.2-4.2L278.8,83h16.5Zm-51.8-14c0-11.5-11.3-13.5-20.1-15.3-2.4-.5-7.8-1.1-7.8-4.4s3.9-3.7,6.3-3.7a8.8,8.8,0,0,1,6.9,2.9,9.1,9.1,0,0,1,1.1,3.7l12.2-.6c-0.5-11.2-10-15.5-20-15.5s-19,3.7-19,14.5c0,18.3,27.2,11.6,27.2,19.8,0,3.6-3.7,4.2-6.5,4.2-5.8,0-8.9-1.7-9.7-7.6l-12.3.4a17.2,17.2,0,0,0,.4,4.2c2.3,9.4,12,12.7,20.7,12.7s20.6-3.5,20.6-15.3M184.2,54H165.9c1.4-5.2,4.2-7.9,9.8-7.9a8.3,8.3,0,0,1,8.5,7.9m13.7,9.9V61.7c0-14.1-7.2-25.7-22.5-25.7s-23.1,10.5-23.1,24.2,8.6,24.2,23.1,24.2c10.1,0,18.7-4.8,22-14.6l-13.1-.9c-1.9,3.4-4.5,4.8-8.6,4.8-6,0-9.1-4.1-9.9-9.8h32Zm-48.4-1.8-14.5-1c-0.1,7.1-6.7,11.5-13.3,11.5a15.2,15.2,0,0,1-9.6-3.3c-5.3-4.4-6.3-11.4-6.3-17.8,0-10.3,4.1-20.5,16-20.5,4.8,0,9.2,1.8,11.6,6.3a15,15,0,0,1,1.3,3.3l14-1a22.5,22.5,0,0,0-1.1-4.2c-3.7-11-14.7-16.1-25.7-16.1-19.5,0-31.2,13.3-31.2,32.4,0,13.1,6.2,25.8,18.8,30.8a34.1,34.1,0,0,0,12.3,2c10.1,0,19.6-3.7,24.8-12.8a24.2,24.2,0,0,0,3.1-9.4m443.8,6a12.2,12.2,0,0,1-10.7,5.9c-3,0-6.1-1.4-6.1-4.9,0-5.9,9.4-6,13.6-7.1l3.2-1.1v7.1h0Zm12.9-10.6c0-3.7.2-9-1.2-12.4-3.4-7.9-11.9-9.2-19.5-9.2-10.3,0-18.9,4.4-19.5,15.8h12c-0.2-4.5,4.4-5.7,8-5.7s7,0.7,7,4.2-4.8,3.4-7.1,3.8c-9.9,1.4-22.5,2.6-22.5,15.5,0,9.3,7.1,14.7,15.9,14.7,6.5,0,9.4-1.9,14.4-5.5V83h12.4V57.6ZM654.3,69c0-11.5-11.3-13.5-20.1-15.3-2.4-.5-7.8-1.1-7.8-4.4s3.9-3.7,6.3-3.7a8.8,8.8,0,0,1,6.9,2.9,9,9,0,0,1,1.1,3.7l12.2-.6c-0.5-11.2-10-15.5-20-15.5s-19,3.7-19,14.5c0,18.3,27.2,11.6,27.2,19.8,0,3.6-3.7,4.2-6.5,4.2-5.8,0-8.9-1.7-9.7-7.6l-12.3.4a17,17,0,0,0,.4,4.2c2.3,9.4,12,12.7,20.7,12.7s20.6-3.5,20.6-15.3M556.5,83h-13V20.8h13V83h0Zm-34.9,0V57.4c0-2.9.2-6.4-2.2-8.6a6.6,6.6,0,0,0-4.6-1.6,7.5,7.5,0,0,0-5,1.8c-3.1,2.6-2.9,6.9-2.9,10.5V83H494V20.8h12.9V42c2-3.6,8.5-5.7,12.4-5.7a16.5,16.5,0,0,1,9.1,2.6c5.3,3.8,6.2,8.9,6.2,15V83h-13Zm-74.7,0V73.3l22.6-25.2h-20V37.3h36.2V47.8L463.8,72.3h23.4V83H446.9Zm-114.5-65H316.9l-6.3,13.2h10.1Zm5.5,19.2H324.1l-7.6,30.8-8.3-30.8H294.1l13.2,37c0.7,2,1.9,4.3,1.9,6.5a6.6,6.6,0,0,1-1.9,4.7c-1.2,1-4,1.1-5.5,1.1h-3.4V96.8l3.4,0.2c5.6,0,12.8.4,16.7-4.5,1.9-2.4,3.4-7,4.3-9.9Z" transform="translate(0 0)" fill="#efeff2"/>
</svg>