<svg id="Layer_1" data-name="Layer 1" xmlns="http://www.w3.org/2000/svg" viewBox="0 0 356.9 97.3" preserveAspectRatio="xMinYMid">
  <title>Dvojka</title>
  <path id="Dvojka" d="M312.9,62.2L295.3,79.5l18.8,28.3H297.7L286.3,88.4,282,92.6v15.1H269.1V45.7H282V77.8l14.1-15.6h16.8m-52.7,0v46.9c0,10.6-5.9,13.1-15.3,13.1h-5.3V111.4h0.4c3.7,0,7.3-.1,7.3-4.8V62.2h12.8Zm0-5H247.4V45.7h12.8V57.2h0ZM217.1,71.3c-7.8,0-10.5,6.7-10.5,13.5s2.5,13.8,10.3,13.8,10.3-7.5,10.3-14.2S224.8,71.3,217.1,71.3Zm-0.6,37.8c-14.2,0-23.1-9.8-23.1-23.8s9.6-24.4,24.4-24.4,22.8,10.3,22.8,23.9-9.8,24.3-24,24.3h0Zm-39-1.3H165.1L149.4,62.2h13.8l8.4,28.2,7.6-28.2h13.7ZM107.7,96.2h4.1c9.7,0,19.7-.4,19.7-20,0-5.9-1.4-13.9-7.2-17-3.6-1.9-8.8-1.9-12.8-1.9h-3.8V96.2h0Zm6.6-50.6c7.4,0,14.7.6,20.8,5.2,8.2,6.1,11.2,16.2,11.2,25.9,0,11.8-5.1,23.9-16.5,28.7-5.1,2.1-10.6,2.3-16.1,2.3h-20V45.7h20.5ZM344,92.9a12.2,12.2,0,0,1-10.7,5.9c-3,0-6.1-1.4-6.1-4.9,0-5.9,9.4-6,13.6-7.1l3.2-1.1v7.1h0Zm12.9-10.6c0-3.7.2-9-1.2-12.4-3.4-7.9-11.9-9.2-19.5-9.2-10.3,0-18.9,4.4-19.5,15.8h12c-0.2-4.5,4.4-5.7,8-5.7s7,0.7,7,4.2-4.8,3.4-7.1,3.8c-9.9,1.4-22.5,2.6-22.5,15.5,0,9.3,7.1,14.7,15.9,14.7,6.5,0,9.4-1.9,14.4-5.5v4.2h12.5V82.3ZM29.2,25H0V39.5H58.9C54.6,29.6,43.4,25,29.2,25M56.9,62.2H0V47.8H60.7c0,0.6,0,1.1,0,1.7,0,5.4-1.3,9.5-3.8,12.7M0,70.5V84.9H53L44.1,70.5H0ZM0,93.2H58.1L67,107.8H0V93.2H0Z" transform="translate(0 -25)" fill="#85248f"/>
</svg>