<svg id="Layer_1" data-name="Layer 1" xmlns="http://www.w3.org/2000/svg" viewBox="0 0 269.7 83.8" preserveAspectRatio="xMinYMid">
  <title>Jazz</title>
  <path id="Jazz" d="M269.5,107.5h-40V97.8L252,72.8H232.1V62.1H268V72.5L246.3,96.8h23.2v10.7h0Zm-83.8-9.6,22.4-25.1H188.3V62.1h35.9V72.5L202.5,96.8h23.2v10.7h-40V97.8h0Zm-18.6,9.6v-4.1c-5,3.5-7.8,5.4-14.3,5.4-8.8,0-15.8-5.4-15.8-14.6,0-12.9,12.5-14,22.3-15.4,2.3-.3,7-0.5,7-3.8s-4.2-4.2-6.9-4.2-8.1,1.2-8,5.7H139.6c0.6-11.3,9.1-15.7,19.4-15.7,7.5,0,16,1.2,19.4,9.1,1.4,3.4,1.2,8.7,1.2,12.4v25.2H167.2Zm-0.4-21.7-3.2,1.1c-3.6,1-13.5,1.1-13.5,6.9,0,3.8,3.4,4.9,6,4.9,1,0,7.3-.1,10.6-5.9v-7h0Zm-57.5,23c-8.2,0-15.7-3.3-18.5-11.7-0.8-2.3-.9-5.6-0.9-8.8V83.6h13.6V90c0,3.5,1.6,7,6.6,7s7-3.4,7-8.2V45.6h13.8V84.3c0,9.6-.1,15.8-7.2,20.8C119.2,108.3,114.5,108.8,109.2,108.8ZM-0.2,93.1h58l8.9,14.5H-0.2V93.1Zm0-30.9V47.7H60.3c0,0.6,0,1.1,0,1.7,0,5.4-1.3,9.5-3.8,12.7H-0.2Zm0-37.2H28.9c14.2,0,25.4,4.6,29.6,14.5H-0.2V25ZM52.7,84.8H-0.2V70.4H43.8Z" transform="translate(0.2 -25)" fill="#00809e"/>
</svg>