<svg id="Layer_1" data-name="Layer 1" xmlns="http://www.w3.org/2000/svg" viewBox="0 0 593.1 84" preserveAspectRatio="xMinYMid">
  <title>Junior</title>
  <path id="Junior" d="M590,72.9c-9.3,0-10.3,6.8-10.3,12.3v22.4H566.4V62.1H579v7.5c2.5-6.3,6.2-8.3,11.8-8.3l2.3,0.2V73.2Zm-53.9,36c-14.2,0-23.1-9.8-23.1-23.8s9.6-24.3,24.3-24.3S560,71.1,560,84.7,550.2,108.9,536,108.9Zm0.6-37.7c-7.8,0-10.4,6.7-10.4,13.4s2.5,13.8,10.3,13.8,10.3-7.5,10.3-14.2S544.3,71.2,536.7,71.2Zm-43.1-9h12.8v45.4H493.6V62.1h0Zm0-16.5h12.8V57.3H493.6V45.6h0ZM471.8,80.8c0-4.4-1.7-8.7-6.8-8.7s-7.8,5.4-7.8,10.3v25.2h-13V62.1h12.6v5.3a15.3,15.3,0,0,1,12.5-6.3,15.5,15.5,0,0,1,9.6,3c5.2,3.9,6.1,9.5,6.1,15.6v27.9H471.8V80.8Zm-49,21.8c-2.5,4.1-8.2,6.1-12.9,6.1-14.2,0-15.2-11.5-15.2-20.1V62.1h12.9V88.2c0,5,1,9.8,7.1,9.8s7.8-5.3,7.8-12.2V62.1h12.5v45.4H422.8v-5Zm-58.1,6.3c-8.2,0-15.7-3.3-18.5-11.7-0.8-2.3-.9-5.6-0.9-8.8V83.7h13.6V90c0,3.5,1.6,7,6.6,7s7-3.4,7-8.2V45.6h13.9V84.4c0,9.6-.1,15.8-7.2,20.8-4.5,3.2-9.2,3.7-14.5,3.7h0Zm-71.7,0c-14.2,0-23.1-9.8-23.1-23.8s9.6-24.3,24.3-24.3S317,71.1,317,84.7s-9.8,24.2-24,24.2h0Zm0.6-37.7c-7.8,0-10.4,6.7-10.4,13.4s2.5,13.8,10.3,13.8,10.3-7.5,10.3-14.2S301.3,71.2,293.7,71.2Zm-43.1-9h12.8v45.4H250.6V62.1Zm0-16.5h12.8V57.3H250.6V45.6h0ZM229,103.2c-2.6,4.1-7.4,5.5-12,5.5-12.9,0-19.4-11.8-19.4-23.4s6.2-24.3,20-24.3a16.6,16.6,0,0,1,10.9,4.1V45.6h13.1v61.9H229v-4.4h0Zm-9.1-31.6c-6.9,0-9.1,7.4-9.1,13.1S212.6,98,220.1,98s8.9-6.9,8.9-12.9-1.5-13.5-9-13.5h0Zm-29.6,36H177.9v-4.1c-5,3.4-7.8,5.4-14.3,5.4-8.8,0-15.8-5.4-15.8-14.7,0-12.9,12.5-14,22.4-15.4,2.3-.4,7-0.5,7-3.8s-4.2-4.2-6.9-4.2-8.2,1.2-8,5.7H150.3c0.6-11.3,9.1-15.7,19.4-15.7,7.5,0,16.1,1.2,19.4,9.1,1.4,3.4,1.2,8.7,1.2,12.4v25.3h0ZM177.5,85.8l-3.2,1.1c-3.6,1-13.5,1.1-13.5,6.9,0,3.8,3.4,4.9,6.1,4.9,1,0,7.3-.1,10.6-5.9v-7Zm-12-29.9,5.9-12.2h14.5l-11,12.2h-9.4Zm-35.6,51.7L117,86.2h-9.3v21.4h-14V45.6h23.8c9.4,0,17.7,1.3,22.2,10.6a23.5,23.5,0,0,1,1.9,9.5c0,4.5-1,9.2-3.9,12.8a17.7,17.7,0,0,1-6.5,5.4l14.2,23.6H129.9Zm-4.1-47.3c-2.8-3.5-7.4-3.3-11.4-3.3h-6.7V74.7h7.4c2.3,0,5.5,0,7.6-1a8.4,8.4,0,0,0,4.9-8A8.9,8.9,0,0,0,125.8,60.3ZM0,93.1H58l8.9,14.5H0V93.1ZM0,62.2V47.7H60.6c0,0.6,0,1.1,0,1.7,0,5.4-1.3,9.5-3.8,12.7H0ZM0,25H29.1c14.2,0,25.4,4.6,29.6,14.5H0V25ZM52.9,84.8H0V70.4H44.1Z" transform="translate(0 -25)" fill="#000f37"/>
</svg>