<svg id="Layer_1" data-name="Layer 1" xmlns="http://www.w3.org/2000/svg" viewBox="0 0 258.2 84" preserveAspectRatio="xMinYMid">
  <title>Plus</title>
  <path id="Plus" d="M28.9,0H-0.2V14.5H58.5C54.3,4.6,43.1,0,28.9,0M56.5,37.2H-0.2V22.7H60.3c0,0.6,0,1.1,0,1.7,0,5.4-1.3,9.5-3.8,12.7M-0.2,45.4V59.8H52.7L43.8,45.4H-0.2Zm0,22.7h58l8.9,14.5H-0.2V68.1ZM107.4,49.8h8.8c5.4,0,11.2-1.5,11.2-8.9S119.7,32,114.6,32h-7.2V49.8m9.8-29.1c9.4,0,17.7,1.3,22.2,10.6a23.5,23.5,0,0,1,1.9,9.5c0,4.5-1.1,9.2-3.9,12.8-5.6,7.4-12.8,7.6-21.2,7.6h-8.9V82.6h-14V20.6h23.9ZM257.9,68.7c0-11.4-11.3-13.4-20-15.3-2.4-.5-7.7-1.1-7.7-4.4s3.9-3.7,6.3-3.7a8.8,8.8,0,0,1,6.9,2.9,9.1,9.1,0,0,1,1.1,3.7l12.1-.6c-0.5-11.2-9.9-15.5-20-15.5s-19,3.7-19,14.4c0,18.2,27.1,11.6,27.1,19.8,0,3.6-3.7,4.2-6.5,4.2-5.8,0-8.9-1.7-9.7-7.6l-12.3.4a17.3,17.3,0,0,0,.4,4.2c2.3,9.4,12,12.7,20.7,12.7S257.9,80.5,257.9,68.7Zm-48.3,14V37.2H197.1V56.7c0,2-.2,4-0.2,6,0,5.3-1.1,10.5-7.6,10.5s-7.1-4.8-7.1-9.8V37.2H169.2V63.7c0,6.9.4,14.5,7.1,18.3a16.3,16.3,0,0,0,8.1,1.8c4.7,0,10.4-2,12.9-6.2v5h12.3Zm-62.2,0h12.9V20.6H147.5V82.7Z" transform="translate(0.2 0)" fill="#de7008"/>
</svg>