<svg xmlns="http://www.w3.org/2000/svg" viewBox="0 0 399 50.031">
  <defs>
    <style>
      .cls-1 {
        fill: #000f37;
        fill-rule: evenodd;
      }
    </style>
  </defs>
  <path class="cls-1" d="M729.973,318.984H715v7.42H745.21c-2.183-5.07-7.931-7.42-15.237-7.42m14.213,19.046H715v-7.394h31.144c0.015,0.29.023,0.583,0.02,0.882a10.3,10.3,0,0,1-1.976,6.512M715,342.263v7.381h27.207l-4.555-7.381H715Zm0,11.614h29.82l4.59,7.433H715v-7.433Zm67.2-4.669,7.323,12.116h-8l-6.642-10.99h-4.808v10.99h-7.221v-31.8h12.276c4.829,0,9.117.676,11.42,5.449a12.041,12.041,0,0,1,.991,4.864,10.673,10.673,0,0,1-1.985,6.575A9.115,9.115,0,0,1,782.2,349.208Zm-2.78-12.159c-1.444-1.8-3.792-1.711-5.868-1.711h-3.475v9.1c1.264,0,2.573.044,3.837,0.044a10.484,10.484,0,0,0,3.926-.5,4.3,4.3,0,0,0,2.527-4.1A4.576,4.576,0,0,0,779.421,337.049Zm33.215,24.285-6.378,0-0.045-2.118c-2.577,1.8-4.025,2.794-7.371,2.794-4.521,0-8.139-2.794-8.139-7.526,0-6.623,6.466-7.209,11.531-7.929,1.175-.181,3.617-0.271,3.617-1.938,0-1.8-2.171-2.163-3.572-2.163-1.854,0-4.205.631-4.115,2.928h-6.149c0.316-5.811,4.7-8.064,9.993-8.064,3.888,0,8.275.632,9.992,4.686,0.724,1.757.633,4.46,0.633,6.353Zm-6.606-11.172a13.775,13.775,0,0,1-1.628.541c-1.853.5-6.961,0.54-6.961,3.559,0,1.937,1.762,2.522,3.119,2.522a6.323,6.323,0,0,0,5.47-3.018v-3.6Zm26.583,11.173v-2.252c-1.356,2.117-3.8,2.837-6.194,2.837-6.645,0-9.991-6.081-9.991-12.028,0-6.353,3.21-12.48,10.308-12.48a8.578,8.578,0,0,1,5.605,2.118v-10h6.737v31.807h-6.465Zm-4.7-18.471c-3.571,0-4.7,3.784-4.7,6.712,0,3.2.95,6.849,4.793,6.849,3.752,0,4.566-3.56,4.566-6.623C832.568,346.648,831.8,342.864,827.911,342.864Zm22.425-7.344h-6.6v-5.992h6.6v5.992Zm0,25.815h-6.6V338h6.6v23.337Zm15.281,0.676c-7.324,0-11.89-5.046-11.89-12.209,0-7.569,4.928-12.48,12.522-12.48,7.189,0,11.709,5.271,11.709,12.254C877.958,356.784,872.9,362.011,865.617,362.011Zm0.316-19.373c-4.024,0-5.38,3.424-5.38,6.893,0,3.38,1.266,7.074,5.29,7.074,4.114,0,5.289-3.83,5.289-7.3C871.132,345.972,869.866,342.638,865.933,342.638Zm41.186-13.11c4.837,0,9.132.676,11.438,5.452a12.015,12.015,0,0,1,.994,4.865,10.671,10.671,0,0,1-1.989,6.578c-2.893,3.784-6.6,3.919-10.94,3.919h-4.567v10.993h-7.233V329.528h12.3Zm-5.064,14.957h4.521c2.8,0,5.787-.765,5.787-4.6,0-4.414-3.978-4.55-6.6-4.55h-3.708v9.145Zm27.171-2.658c1.267-3.244,3.211-4.28,6.058-4.28a6.514,6.514,0,0,1,1.176.09v6.037a9.9,9.9,0,0,0-1.582-.135c-4.792,0-5.334,3.514-5.334,6.307v11.489h-6.827V338h6.509v3.829Zm29.3,19.507-6.379,0-0.045-2.118c-2.577,1.8-4.024,2.794-7.37,2.794-4.522,0-8.14-2.794-8.14-7.526,0-6.623,6.467-7.209,11.531-7.929,1.175-.181,3.617-0.271,3.617-1.938,0-1.8-2.171-2.163-3.572-2.163-1.854,0-4.205.631-4.114,2.928h-6.15c0.316-5.811,4.7-8.064,9.993-8.064,3.889,0,8.275.632,9.993,4.686,0.722,1.757.632,4.46,0.632,6.353Zm-6.607-11.172a13.715,13.715,0,0,1-1.628.541c-1.853.5-6.962,0.54-6.962,3.559,0,1.937,1.764,2.522,3.12,2.522a6.322,6.322,0,0,0,5.47-3.018v-3.6ZM985.151,338v20.454a13.584,13.584,0,0,1-.769,5.226c-1.807,4.28-6.554,5.315-10.759,5.315-5.019,0-9.855-1.666-10.353-7.388h7.052c0.633,1.622,2.171,2.163,3.8,2.163,4.069,0,4.476-2.433,4.476-5.857a6.653,6.653,0,0,1,.045-0.946c-1.446,1.982-4.2,2.884-6.555,2.884-6.329,0-9.9-5.182-9.9-11.084,0-5.811,3.435-11.4,9.809-11.4,3.12,0,4.973,1.262,6.736,3.694V338h6.42Zm-11.392,4.821c-3.3,0-5.064,2.658-5.064,5.721,0,2.974,1.627,5.677,4.882,5.677,3.391,0,4.974-2.794,4.974-5.9C978.551,345.386,976.924,342.819,973.759,342.819Zm30.2,18.516v-2.568c-1.31,2.118-4.25,3.153-6.647,3.153-7.323,0-7.82-5.9-7.82-10.316V338h6.645v13.38c0,2.569.5,5.047,3.662,5.047,3.35,0,4.02-2.748,4.02-6.263V338h6.47v23.337h-6.33Zm16.77-9.731c0.41,2.883,1.99,5,5.07,5a4.483,4.483,0,0,0,4.38-2.478l6.69,0.45c-1.67,5-6.1,7.434-11.26,7.434-7.41,0-11.84-5.181-11.84-12.344,0-6.983,4.66-12.345,11.84-12.345,7.83,0,11.53,5.947,11.53,13.155V351.6h-16.41Zm9.41-5.046a4.249,4.249,0,0,0-4.34-4.009c-2.85,0-4.3,1.351-5.02,4.009h9.36Zm30.87,14.777h-7.18V329.528h7.18v31.807Zm19.08,0V347.594c0-2.252-.86-4.46-3.48-4.46-3.16,0-4.02,2.793-4.02,5.271v12.93h-6.69V338h6.51v2.7a7.891,7.891,0,0,1,6.46-3.244,7.986,7.986,0,0,1,4.93,1.532c2.67,2.027,3.12,4.865,3.12,8.019v14.326h-6.83Zm19.35-18.292v10.5c0,1.937.36,2.7,2.53,2.7,0.68,0,1.14-.045,1.81-0.09v5.136a36.323,36.323,0,0,1-4.56.315c-5.47,0-6.42-2.613-6.42-7.3V343.043h-3.35V338h3.35v-6.893h6.64V338h4.12v5.045h-4.12ZM1114,361.335h-6.74v-6.713H1114v6.713Z" transform="translate(-715 -318.969)"/>
</svg>