<svg id="Layer_1" data-name="Layer 1" xmlns="http://www.w3.org/2000/svg" viewBox="0 0 564 83.8">
  <title>Radio_Retro</title>
  <path id="Radio_Retro" data-name="Radio Retro" d="M29,0h-29V14.4H58.5C54.3,4.6,43.1,0,29,0M56.5,37.1H-0.1V22.7H60.3c0,0.6,0,1.1,0,1.7,0,5.4-1.3,9.5-3.8,12.7M-0.1,45.3V59.7H52.7L43.9,45.3H-0.1Zm0,22.6H57.8l8.9,14.5H-0.1V67.9h0Zm131-9.2,14.3,23.7H129.7L116.7,60.9h-9.4V82.4H93.3V20.2h23.9c9.4,0,17.8,1.3,22.3,10.7a23.6,23.6,0,0,1,1.9,9.5c0,4.5-1.1,9.3-3.9,12.9a17.7,17.7,0,0,1-6.5,5.5h0Zm-5.4-23.8c-2.8-3.5-7.4-3.3-11.4-3.3h-6.8V49.3h7.5c2.3,0,5.5,0,7.7-1a8.4,8.4,0,0,0,4.9-8,9,9,0,0,0-1.8-5.6h0Zm64.5,47.5H177.6V78.3c-5,3.4-7.8,5.5-14.4,5.5-8.8,0-15.9-5.5-15.9-14.8,0-13,12.6-14.1,22.5-15.5,2.3-.4,7.1-0.5,7.1-3.8s-4.2-4.2-7-4.2-8.2,1.2-8,5.7h-12c0.6-11.4,9.2-15.8,19.5-15.8,7.6,0,16.1,1.2,19.5,9.2,1.4,3.4,1.2,8.7,1.2,12.4V82.4h0ZM177.2,60.5L174,61.6c-3.6,1-13.6,1.1-13.6,7,0,3.8,3.4,4.9,6.1,4.9,1,0,7.3-.1,10.7-5.9V60.5h0Zm-2.6-30.1h-9.4l5.9-12.3h14.5Zm53.9,51.9V78c-2.6,4.1-7.4,5.6-12.1,5.6-13,0-19.5-11.9-19.5-23.5s6.3-24.4,20.1-24.4A16.7,16.7,0,0,1,228,39.7V20.2h13.1V82.4H228.5Zm-9.2-36.1c-7,0-9.2,7.4-9.2,13.1s1.9,13.4,9.3,13.4,8.9-7,8.9-13-1.5-13.6-9.1-13.6h0ZM263,31.9H250.1V20.2H263V31.9h0Zm0,50.5H250.1V36.7H263V82.4h0Zm29.9,1.3c-14.3,0-23.2-9.9-23.2-23.9s9.6-24.4,24.4-24.4,22.8,10.3,22.8,24-9.9,24.3-24.1,24.3h0Zm0.6-37.9c-7.8,0-10.5,6.7-10.5,13.5s2.5,13.8,10.3,13.8,10.3-7.5,10.3-14.3-2.5-13-10.1-13h0ZM389,58.7l14.3,23.7H387.7l-13-21.5h-9.4V82.4H351.3V20.2h23.9c9.4,0,17.8,1.3,22.3,10.7a23.6,23.6,0,0,1,1.9,9.5c0,4.5-1.1,9.3-3.9,12.9a17.8,17.8,0,0,1-6.5,5.5h0Zm-5.4-23.8c-2.8-3.5-7.4-3.3-11.4-3.3h-6.8V49.3h7.5c2.3,0,5.5,0,7.7-1a8.4,8.4,0,0,0,4.9-8,9,9,0,0,0-1.8-5.5h0Zm35,28.5c0.8,5.6,3.9,9.8,9.9,9.8,4.1,0,6.6-1.4,8.5-4.8l13,0.9c-3.3,9.8-11.9,14.5-21.9,14.5-14.5,0-23.1-10.1-23.1-24.2s9.1-24.1,23.1-24.1S450.6,47,450.6,61.1v2.2h-32ZM437,53.5a8.3,8.3,0,0,0-8.5-7.8c-5.6,0-8.4,2.6-9.8,7.8H437Zm35.5-6.9V67.1c0,3.8.7,5.3,4.9,5.3l3.5-.2V82.3a71.5,71.5,0,0,1-8.9.6c-10.7,0-12.5-5.1-12.5-14.3v-22H453V36.7h6.5V23.2h13V36.7h8v9.9h-8Zm27.8-2.4c2.5-6.3,6.3-8.4,11.8-8.4l2.3,0.2V47.8l-3.1-.3c-9.3,0-10.4,6.9-10.4,12.3V82.4H487.6V36.7h12.7v7.5h0Zm39.5,39.5c-14.3,0-23.2-9.9-23.2-23.9s9.6-24.4,24.4-24.4,22.8,10.3,22.8,24S554,83.7,539.8,83.7Zm0.6-37.9c-7.8,0-10.5,6.7-10.5,13.5s2.5,13.8,10.3,13.8,10.3-7.5,10.3-14.3S548.1,45.8,540.4,45.8Z" transform="translate(0.1 0)" fill="#000f37"/>
</svg>