<svg id="Layer_1" data-name="Layer 1" xmlns="http://www.w3.org/2000/svg" viewBox="0 0 560.6 84.1" preserveAspectRatio="xMinYMid">
  <title>Radiozurnal</title>
  <path id="Radiozurnal" d="M29.2,25H0V39.5H58.8C54.6,29.6,43.4,25,29.2,25M56.8,62.2H0V47.8H60.7c0,0.6,0,1.1,0,1.7,0,5.4-1.3,9.5-3.8,12.7M0,70.5V84.9H53L44.1,70.5H0ZM0,93.2H58.1L67,107.8H0V93.2H0ZM127.9,65.9a8.4,8.4,0,0,1-4.9,8c-2.1,1-5.4,1-7.6,1h-7.5V57h6.8c4,0,8.6-.2,11.4,3.3a8.9,8.9,0,0,1,1.8,5.5M138,78.7c2.8-3.6,3.9-8.4,3.9-12.8a23.5,23.5,0,0,0-1.9-9.5c-4.5-9.3-12.8-10.6-22.2-10.6H93.8v62.1h14.1V86.3h9.4l12.9,21.5h15.6L131.4,84.1A17.8,17.8,0,0,0,138,78.7ZM534.4,43.8H519.9L514,56h9.4ZM525.7,86L522.5,87c-4.1,1.1-13.5,1.1-13.5,7,0,3.4,3.1,4.8,6.1,4.8A12.2,12.2,0,0,0,525.7,93V86h0Zm12.8,21.8H526.1v-4.1c-5,3.5-7.8,5.4-14.3,5.4-8.8,0-15.8-5.4-15.8-14.7,0-12.9,12.5-14,22.4-15.4,2.3-.3,7-0.5,7-3.8s-4.2-4.2-6.9-4.2-8.2,1.2-8,5.7H498.5c0.6-11.3,9.1-15.7,19.4-15.7,7.5,0,16.1,1.2,19.4,9.1,1.4,3.4,1.2,8.7,1.2,12.4v25.3Zm-176.9,0V97.1H338.4l21.8-24.3V62.3h-36V73H344L321.6,98.1v9.7h40Zm-5.4-63.9h-9.9l-4.5,6.6-4.3-6.6h-9.7l8.3,12.3h11.2Zm204.3,63.9H547.7v-62h12.9v62Zm-84,0V81c0-4.4-1.7-8.7-6.8-8.7a7.6,7.6,0,0,0-5.2,2.1c-3.1,3-2.6,7.5-2.6,11.4v22H449V62.3h12.6v5.3a15.3,15.3,0,0,1,12.6-6.3,15.5,15.5,0,0,1,9.6,3c5.2,4,6.1,9.5,6.1,15.6v27.9H476.5ZM441.2,73.1c-9,0-10.1,5.5-10.3,12.9-0.1,2.3-.1,4.7-0.1,6.9v14.8H417.6V62.3h12.6v7.5c2.2-5.7,5.6-8.3,11.8-8.3l2.3,0.2V73.4l-3.1-.3h0Zm-44.9,34.7v-5c-2.5,4.1-8.3,6.1-12.9,6.1a16.3,16.3,0,0,1-8.1-1.8c-6.8-3.8-7.1-11.3-7.1-18.3V62.3h12.9V88.4c0,5,1,9.8,7.1,9.8s7.6-5.2,7.6-10.4c0-2,.2-4,0.2-6V62.3h12.6v45.5H396.4ZM294.6,71.3c-7.8,0-10.4,6.7-10.4,13.4s2.5,13.8,10.3,13.8,10.3-7.5,10.3-14.2S302.2,71.3,294.6,71.3ZM294,109.1c-14.2,0-23.1-9.8-23.1-23.8S280.4,61,295.2,61s22.7,10.3,22.7,23.9-9.8,24.2-24,24.2h0Zm-29.7-1.3H251.5V62.3h12.8v45.5h0Zm0-50.3H251.5V45.8h12.8V57.5h0ZM177.7,93a12.2,12.2,0,0,1-10.6,5.9c-3,0-6.1-1.4-6.1-4.8,0-5.9,9.4-6,13.5-7l3.2-1.1v7Zm12.8-10.5c0-3.7.2-9-1.2-12.4C186,62.2,177.5,61,169.9,61c-10.3,0-18.8,4.4-19.4,15.7h11.9c-0.2-4.5,4.4-5.7,8-5.7s6.9,0.7,6.9,4.2-4.7,3.4-7,3.8c-9.8,1.4-22.4,2.5-22.4,15.5,0,9.2,7,14.7,15.8,14.7,6.5,0,9.3-1.9,14.3-5.4v4.1h12.4V82.5Zm38.6,2.8c0,6-1.6,12.9-8.9,12.9S211,91.1,211,84.9s2.2-13.1,9.1-13.1,9,7.4,9,13.5h0Zm12.6,22.5v-62H228.7V65.3a16.6,16.6,0,0,0-10.9-4.1c-13.8,0-20,11.9-20,24.3s6.5,23.4,19.4,23.4c4.7,0,9.4-1.4,12-5.5v4.4h12.6Z" transform="translate(0 -25)" fill="#ed2e38"/>
</svg>