<svg id="Layer_1" data-name="Layer 1" xmlns="http://www.w3.org/2000/svg" viewBox="0 0 329.5 84" preserveAspectRatio="xMinYMid">
  <title>Vltava</title>
  <path id="Vltava" d="M29.2,25H0V39.5H58.9C54.6,29.6,43.4,25,29.2,25M56.9,62.2H0V47.8H60.7c0,0.6,0,1.1,0,1.7,0,5.4-1.3,9.5-3.8,12.7M0,70.5V84.9H53L44.1,70.5H0ZM0,93.2H58.1L67,107.7H0V93.2H0Zm227.3-.3a12.2,12.2,0,0,1-10.6,5.9c-3,0-6.1-1.4-6.1-4.8,0-5.9,9.4-6,13.5-7l3.2-1.1v7m12.8-10.5c0-3.7.2-9-1.2-12.4-3.3-7.9-11.9-9.1-19.4-9.1-10.3,0-18.8,4.4-19.4,15.7H212c-0.2-4.5,4.4-5.7,8-5.7s6.9,0.7,6.9,4.2-4.7,3.4-7,3.8c-9.8,1.4-22.4,2.5-22.4,15.5,0,9.2,7,14.7,15.8,14.7,6.5,0,9.3-1.9,14.3-5.4v4.1h12.4V82.4Zm76.6,3.5-3.2,1.1C309.4,88,300,88.1,300,94c0,3.4,3.1,4.8,6.1,4.8a12.2,12.2,0,0,0,10.6-5.9v-7h0Zm12.8,21.8H317.1v-4.1c-5,3.5-7.8,5.4-14.3,5.4-8.8,0-15.8-5.4-15.8-14.7,0-12.9,12.6-14.1,22.4-15.5,2.3-.4,7-0.5,7-3.8s-4.2-4.2-6.9-4.2-8.2,1.2-8,5.7H289.5c0.6-11.3,9.1-15.7,19.4-15.7,7.6,0,16.1,1.2,19.4,9.1,1.4,3.4,1.2,8.7,1.2,12.4v25.3ZM286.4,62.2H272.7l-7.6,28.2-8.3-28.2H243l15.7,45.5h12.4Zm-93.2,45.4v-10l-3.5.2c-4.1,0-4.9-1.4-4.9-5.3V72h8V62.2h-8V48.8H171.8V62.2h-6.5V72h6.5V91.7c0,0.8-.1,1.5-0.1,2.3,0,9.5,2.4,14.2,12.6,14.2a75.5,75.5,0,0,0,8.9-.6h0Zm-46.2.1h12.9v-62H147v62h0Zm-4.8-62h-15l-13,45L101,45.7H85.8l21.8,62h12.9Z" transform="translate(0 -25)" fill="#00b8e0"/>
</svg>